<?xml version="1.0" encoding="UTF-8"?>
<svg width="90px" height="26px" viewBox="0 0 90 26" version="1.1" xmlns="http://www.w3.org/2000/svg" xmlns:xlink="http://www.w3.org/1999/xlink">
    <!-- Generator: Sketch 51.2 (57519) - http://www.bohemiancoding.com/sketch -->
    <title>Follett_Horizontal_White_Logo</title>
    <desc>Created with Sketch.</desc>
    <defs></defs>
    <g id="eReader-Layouts" stroke="none" stroke-width="1" fill="none" fill-rule="evenodd">
        <g id="Chromebook" transform="translate(-675.000000, -15.000000)" fill="#FFFFFF">
            <g id="Logos" transform="translate(656.000000, 10.000000)">
                <g id="Follett_Horizontal_White_Logo" transform="translate(19.000000, 5.000000)">
                    <path d="M89.44,13.1192661 L89.44,9.5412844 L86.1361478,9.5412844 L86.1361478,5.00917431 L81.8883377,5.00917431 L81.8883377,15.7431193 C81.8284965,21.7294592 85.2536134,21.948941 89.2040106,21.9449541 L89.2040106,18.1284404 C86.9499391,18.1334257 86.1929663,18.2381784 86.1361478,15.7431193 L86.1361478,13.1192661 L89.44,13.1192661" id="Fill-6"></path>
                    <path d="M80.7083905,13.1192661 L80.7083905,9.5412844 L77.4045383,9.5412844 L77.4045383,5.00917431 L73.1567282,5.00917431 L73.1567282,15.7431193 C73.0966526,21.7294592 76.5221137,21.948941 80.4724011,21.9449541 L80.4724011,18.1284404 C78.218969,18.1334257 77.4614955,18.2381784 77.4045383,15.7431193 L77.4045383,13.1192661 L80.7083905,13.1192661" id="Fill-7"></path>
                    <path d="M67.8771723,13.7866789 C67.6678497,12.6348073 66.6214725,11.8827156 65.4816435,11.8827156 C64.2488346,11.8827156 63.2258204,12.5410642 62.9702438,13.7866789 L67.8771723,13.7866789 Z M71.8073406,16.2550092 L62.9001549,16.2550092 C62.9001549,17.9941468 63.8077703,18.9349174 65.5510244,18.9349174 C66.4586398,18.9349174 67.1099707,18.6286422 67.5743979,17.8300367 L71.6447439,17.8300367 C70.969578,20.674055 68.2951097,21.9668991 65.5750953,21.9668991 C61.6210921,21.9668991 58.6679202,19.7103853 58.6679202,15.5499083 C58.6679202,11.5301651 61.3886425,9.10882569 65.2727928,9.10882569 C69.4120477,9.10882569 71.8073406,11.6949908 71.8073406,15.8082385 L71.8073406,16.2550092 Z" id="Fill-3"></path>
                    <polygon id="Fill-5" points="53.0976253 21.706422 57.3454354 21.706422 57.3454354 4.05504587 53.0976253 4.05504587"></polygon>
                    <polygon id="Fill-4" points="46.7259103 21.706422 50.9737203 21.706422 50.9737203 4.05504587 46.7259103 4.05504587"></polygon>
                    <path d="M36.3810769,15.5494312 C36.3810769,17.0777064 37.3099314,18.2527156 38.9108838,18.2527156 C40.5116002,18.2527156 41.4413986,17.0777064 41.4413986,15.5494312 C41.4413986,14.0686239 40.5116002,12.8230092 38.9108838,12.8230092 C37.3099314,12.8230092 36.3810769,14.0686239 36.3810769,15.5494312 Z M45.5941049,15.5494312 C45.5941049,19.6395413 42.4802242,21.9668991 38.9108838,21.9668991 C35.3639624,21.9668991 32.2278987,19.663633 32.2278987,15.5494312 C32.2278987,11.4354679 35.3429594,9.10930275 38.9108838,9.10930275 C42.4802242,9.10930275 45.5941049,11.4354679 45.5941049,15.5494312 Z" id="Fill-2"></path>
                    <polyline id="Fill-1" points="26.1948285 7.87155963 26.1948285 10.9724771 31.1506069 10.9724771 31.1506069 14.7889908 26.1948285 14.7889908 26.1948285 21.706422 21.711029 21.706422 21.711029 4.05504587 32.5665435 4.05504587 32.5665435 7.87155963 26.1948285 7.87155963"></polyline>
                    <path d="M5.42775726,3.10091743 L10.8555145,9.30275229 C12.3888505,11.2476752 13.142963,12.8902232 12.9794195,14.3119266 C12.9322586,15.5836384 11.9724358,17.0496866 10.1475462,18.6055046 L13.215409,22.1834862 C18.7860836,17.3295034 19.166826,11.9933747 14.3953562,6.20183486 L8.96759894,0 L5.42775726,3.10091743" id="Fill-11"></path>
                    <path d="M4.48379947,3.81651376 C-1.08674321,8.67020516 -1.46774,14.0067546 3.30385224,19.7981651 L8.7316095,26 L12.2714512,22.8990826 L6.84369393,16.6972477 C5.31053052,14.7524461 4.5563852,13.1099158 4.71978892,11.6880734 C4.7673366,10.4162904 5.72720116,8.95049717 7.55166227,7.39449541 L4.48379947,3.81651376" id="Fill-9"></path>
                </g>
            </g>
        </g>
    </g>
</svg>