<svg xmlns="http://www.w3.org/2000/svg" xmlns:xlink="http://www.w3.org/1999/xlink" viewBox="283 -44 1012 681"><style>.st0{display:none}.st0,.st1{fill:none}.st2{fill:#fff}.st3{fill:#0f9d58}.st3,.st4,.st5,.st6,.st7{clip-path:url(#SVGID_2_)}.st4{fill:#57bb8a}.st5{fill:#f7f7f7}.st6{fill:#f1f1f1}.st7{fill:#f4b400}.st8{opacity:.2;fill:#fff;enable-background:new}.st10,.st11,.st8,.st9{clip-path:url(#SVGID_2_)}.st9{opacity:.2;enable-background:new;fill:#bf360c}.st10{fill:url(#XMLID_3_)}.st11,.st12{opacity:.2;fill:#263238;enable-background:new}.st12{clip-path:url(#SVGID_4_);fill:#fff}.st13{fill:url(#XMLID_5_)}</style><path class="st0" d="M154.1-172H1422v904H154.1z"/><path class="st1" d="M283.2 460h1011.6v192H283.2z"/><path class="st1" d="M283.2 501h1011.6v136H283.2z"/><path class="st1" d="M283.2 460h1011.6v192H283.2z"/><path d="M774.6 606c-13.5 0-24.8-4.6-33.9-13.7S727 571.8 727 558.1s4.6-25 13.7-34.2c9.1-9.1 20.4-13.7 33.9-13.7 13.8 0 25 5 33.7 15l-8.2 7.9c-6.2-7.8-14.7-11.6-25.5-11.6-10 0-18.4 3.4-25.3 10.1S739 547.2 739 558.1s3.4 19.8 10.3 26.5c6.9 6.7 15.3 10.1 25.3 10.1 11 0 20.4-4.4 28.2-13.3l8.2 8.2c-4.2 5-9.4 9-15.7 12-6.4 3-13.3 4.4-20.7 4.4zm57.3-2h-11.8v-91.6h11.8V604zm31.7 2c-6.7 0-12.2-1.9-16.7-5.8-4.5-3.8-6.7-8.9-6.7-15.2 0-6.8 2.6-12.2 7.9-16.1s11.8-5.8 19.6-5.8c6.9 0 12.6 1.3 17 3.8v-1.8c0-4.6-1.6-8.3-4.7-11.1-3.2-2.8-7-4.2-11.6-4.2-3.4 0-6.5.8-9.3 2.4s-4.7 3.8-5.7 6.7l-10.8-4.6c1.5-3.8 4.3-7.2 8.6-10.4s9.9-4.8 16.9-4.8c8 0 14.7 2.3 20 7s7.9 11.3 7.9 19.8V604h-11.3v-8.7h-.5c-4.7 7.2-11.5 10.7-20.6 10.7zm1.9-10.7c4.9 0 9.3-1.8 13.2-5.4 4-3.6 6-7.9 6-12.9-3.3-2.7-8.3-4.1-15-4.1-5.7 0-10 1.2-12.9 3.7s-4.4 5.4-4.4 8.7c0 3.1 1.3 5.5 4 7.3s5.7 2.7 9.1 2.7zm64.4 10.7c-7 0-12.8-1.7-17.3-5.1-4.6-3.4-7.9-7.7-10-12.8l10.5-4.4c3.3 7.9 9 11.8 17 11.8 3.7 0 6.7-.8 9-2.4s3.5-3.8 3.5-6.4c0-4.1-2.9-6.9-8.6-8.3l-12.7-3.1c-4-1-7.8-3-11.4-5.8-3.6-2.9-5.4-6.7-5.4-11.6 0-5.5 2.5-10 7.4-13.5s10.7-5.2 17.5-5.2c5.5 0 10.5 1.3 14.8 3.8 4.4 2.5 7.5 6.1 9.3 10.8l-10.2 4.2c-2.3-5.5-7.1-8.3-14.3-8.3-3.5 0-6.4.7-8.8 2.2s-3.6 3.4-3.6 5.9c0 3.6 2.8 6 8.3 7.3l12.4 2.9c5.9 1.4 10.2 3.7 13.1 7 2.8 3.3 4.2 7.1 4.2 11.3 0 5.6-2.3 10.3-6.9 14.1s-10.6 5.6-17.8 5.6zm56.8 0c-7 0-12.8-1.7-17.3-5.1-4.6-3.4-7.9-7.7-10-12.8l10.5-4.4c3.3 7.9 9 11.8 17 11.8 3.7 0 6.7-.8 9-2.4s3.5-3.8 3.5-6.4c0-4.1-2.9-6.9-8.6-8.3l-12.7-3.1c-4-1-7.8-3-11.4-5.8-3.6-2.9-5.4-6.7-5.4-11.6 0-5.5 2.5-10 7.4-13.5s10.7-5.2 17.5-5.2c5.5 0 10.5 1.3 14.8 3.8 4.4 2.5 7.5 6.1 9.3 10.8l-10.2 4.2c-2.3-5.5-7.1-8.3-14.3-8.3-3.5 0-6.4.7-8.8 2.2s-3.6 3.4-3.6 5.9c0 3.6 2.8 6 8.3 7.3l12.4 2.9c5.9 1.4 10.2 3.7 13.1 7 2.8 3.3 4.2 7.1 4.2 11.3 0 5.6-2.3 10.3-6.9 14.1S994 606 986.7 606zm44.5-2h-11.8v-62.7h11.3v10.2h.5c1.2-3.4 3.6-6.2 7.4-8.4 3.7-2.2 7.3-3.3 10.8-3.3s6.4.5 8.8 1.5l-4.5 11c-1.5-.6-3.6-.9-6.3-.9-4.3 0-8 1.7-11.3 5.1s-4.9 7.8-4.9 13.2V604zm34.9-55.2c6.1-6.4 13.8-9.5 23.2-9.5s17.1 3.2 23.2 9.5c6.1 6.4 9.1 14.3 9.1 23.9s-3 17.5-9.1 23.9-13.8 9.5-23.2 9.5-17.1-3.2-23.2-9.5c-6.1-6.4-9.1-14.3-9.1-23.9s3-17.6 9.1-23.9zm8.8 40.3c4.1 4.1 8.9 6.2 14.4 6.2s10.3-2.1 14.4-6.2 6.1-9.6 6.1-16.4-2-12.3-6.1-16.4-8.9-6.2-14.4-6.2-10.3 2.1-14.4 6.2-6.1 9.6-6.1 16.4 2 12.3 6.1 16.4zm60.9-40.3c6.1-6.4 13.8-9.5 23.2-9.5s17.1 3.2 23.2 9.5c6.1 6.4 9.1 14.3 9.1 23.9s-3 17.5-9.1 23.9-13.8 9.5-23.2 9.5-17.1-3.2-23.2-9.5c-6.1-6.4-9.1-14.3-9.1-23.9s3-17.6 9.1-23.9zm8.7 40.3c4.1 4.1 8.9 6.2 14.4 6.2s10.3-2.1 14.4-6.2 6.1-9.6 6.1-16.4-2-12.3-6.1-16.4-8.9-6.2-14.4-6.2-10.3 2.1-14.4 6.2-6.1 9.6-6.1 16.4 2.1 12.3 6.1 16.4zm55 14.9v-62.7h11.3v8.7h.5c1.8-3 4.5-5.5 8.3-7.6 3.7-2.1 7.4-3.1 11.1-3.1 9.7 0 16.3 4 19.8 12 5.1-8 12.4-12 21.9-12 7.4 0 13 2.4 16.8 7.1s5.6 11.2 5.6 19.3V604H1283v-36.6c0-6.3-1.2-10.8-3.5-13.4s-5.8-4-10.5-4c-4.6 0-8.4 2-11.5 5.9-3 3.9-4.5 8.4-4.5 13.4V604h-11.8v-36.6c0-6.3-1.2-10.8-3.5-13.4s-5.8-4-10.5-4c-4.6 0-8.4 2-11.5 5.9-3 3.9-4.5 8.4-4.5 13.4V604h-11.7z" class="st2"/><path class="st1" d="M283.2 460h1011.6v192H283.2z"/><path d="M283.9 553.6c0-28.9 24.3-52.5 53.3-52.5 16 0 27.4 6.3 36 14.5l-10.1 10.1c-6.1-5.8-14.5-10.2-25.9-10.2-21.1 0-37.6 17-37.6 38.1s16.5 38.1 37.6 38.1c13.7 0 21.5-5.5 26.5-10.5 4.1-4.1 6.8-10 7.8-18h-34.3v-14.3h48.3c.5 2.6.8 5.6.8 9 0 10.8-2.9 24.1-12.4 33.5-9.2 9.6-21 14.7-36.6 14.7-29-.1-53.4-23.6-53.4-52.5zm141.3-15.1c-18.7 0-33.9 14.2-33.9 33.8 0 19.5 15.2 33.8 33.9 33.8s33.9-14.3 33.9-33.8c0-19.6-15.2-33.8-33.9-33.8zm0 54.2c-10.2 0-19.1-8.4-19.1-20.5 0-12.2 8.8-20.5 19.1-20.5 10.2 0 19.1 8.3 19.1 20.5 0 12.1-8.8 20.5-19.1 20.5zm74-54.2c-18.7 0-33.9 14.2-33.9 33.8 0 19.5 15.2 33.8 33.9 33.8s33.9-14.3 33.9-33.8c0-19.6-15.2-33.8-33.9-33.8zm0 54.2c-10.2 0-19.1-8.4-19.1-20.5 0-12.2 8.8-20.5 19.1-20.5s19.1 8.3 19.1 20.5c0 12.1-8.8 20.5-19.1 20.5zm90.8-52.2v5.5h-.5c-3.3-4-9.7-7.6-17.8-7.6-16.9 0-32.4 14.8-32.4 33.9 0 18.9 15.5 33.7 32.4 33.7 8.1 0 14.5-3.6 17.8-7.7h.5v4.9c0 12.9-6.9 19.8-18 19.8-9.1 0-14.7-6.5-17-12l-12.9 5.4c3.7 9 13.6 20 30 20 17.4 0 32.1-10.2 32.1-35.2v-60.7H590zm-17 52.2c-10.2 0-18.8-8.6-18.8-20.4 0-11.9 8.6-20.6 18.8-20.6 10.1 0 18 8.7 18 20.6.1 11.9-7.9 20.4-18 20.4zm41.4-88h14.8V604h-14.8zm55.5 88c-7.6 0-12.9-3.5-16.4-10.2l45.2-18.7-1.5-3.8c-2.8-7.6-11.4-21.5-28.9-21.5-17.4 0-31.9 13.7-31.9 33.8 0 18.9 14.3 33.8 33.5 33.8 15.5 0 24.4-9.5 28.2-15l-11.5-7.7c-3.9 5.6-9.1 9.3-16.7 9.3zm-1.1-41.2c5.9 0 10.9 2.9 12.5 7.2l-30.2 12.5c-.4-13 10.1-19.7 17.7-19.7z" class="st2"/><path class="st1" d="M283.2 501h416v136h-416zM501-44h576v456H501V-44z"/><defs><path id="SVGID_1_" d="M1017-44H561c-19.9 0-36 16.1-36 36v384c0 19.9 16.1 36 36 36h456c19.9 0 36-16.1 36-36V-8c0-19.9-16.1-36-36-36z"/></defs><clipPath id="SVGID_2_"><use xlink:href="#SVGID_1_"/></clipPath><path d="M573 4h432v360H573V4z" class="st3"/><path d="M885 196c14.9 0 27-12.1 27-27s-12.1-27-27-27-27 12.1-27 27 12.1 27 27 27zm0 18c-28.9 0-60 15.3-60 34.3V268h120v-19.7c0-19-31.1-34.3-60-34.3zm-192-18c14.9 0 27-12.1 27-27s-12.1-27-27-27-27 12.1-27 27 12.1 27 27 27zm0 18c-28.9 0-60 15.3-60 34.3V268h120v-19.7c0-19-31.1-34.3-60-34.3z" class="st4"/><path d="M789 172c19.9 0 36-16.1 36-36s-16.1-36-36-36-36 16.1-36 36 16.1 36 36 36zm0 24c-40.5 0-84 21.5-84 48v24h168v-24c0-26.5-43.5-48-84-48z" class="st5"/><g opacity=".2" clip-path="url(#SVGID_2_)"><image xlink:href="9CD6A907C9DF5BF0.png" transform="matrix(.7055 0 0 .6869 818.68 322.71)" height="86" width="205"/></g><path d="M837 340h108v24H837v-24z" class="st6"/><path d="M1017-44H561c-19.9 0-36 16.1-36 36v384c0 19.9 16.1 36 36 36h456c19.9 0 36-16.1 36-36V-8c0-19.9-16.1-36-36-36zm-12 408H573V4h432v360z" class="st7"/><path d="M1017-44H561c-19.9 0-36 16.1-36 36v3c0-19.9 16.1-36 36-36h456c19.9 0 36 16.1 36 36v-3c0-19.9-16.1-36-36-36z" class="st8"/><path d="M1017 409H561c-19.9 0-36-16.1-36-36v3c0 19.9 16.1 36 36 36h456c19.9 0 36-16.1 36-36v-3c0 19.9-16.1 36-36 36z" class="st9"/><linearGradient id="XMLID_3_" y2="833" gradientUnits="userSpaceOnUse" x2="1957.7" gradientTransform="matrix(.25 0 0 .25 425.33 204.25)" y1="641.66" x1="1957.7"><stop stop-color="#BF360C" stop-opacity=".2" offset="0"/><stop stop-color="#BF360C" stop-opacity=".02" offset="1"/></linearGradient><path d="M944.8 364h-108l48 48h107.9l-47.9-48z" class="st10"/><path d="M573 1h432v3H573V1z" class="st11"/><defs><path id="SVGID_3_" d="M1017-44H561c-19.9 0-36 16.1-36 36v384c0 19.9 16.1 36 36 36h456c19.9 0 36-16.1 36-36V-8c0-19.9-16.1-36-36-36z"/></defs><clipPath id="SVGID_4_"><use xlink:href="#SVGID_3_"/></clipPath><path d="M573 364h432v3H573v-3z" class="st12"/><radialGradient id="XMLID_5_" gradientUnits="userSpaceOnUse" cy="-950.24" cx="470.63" gradientTransform="matrix(.25 0 0 .25 425.33 204.25)" r="2522.5"><stop stop-color="#fff" stop-opacity=".1" offset="0"/><stop stop-color="#fff" stop-opacity="0" offset="1"/></radialGradient><path d="M1017-44H561c-19.9 0-36 16.1-36 36v384c0 19.9 16.1 36 36 36h456c19.9 0 36-16.1 36-36V-8c0-19.9-16.1-36-36-36z" class="st13"/></svg>