<?xml version="1.0" encoding="utf-8"?>
<!-- Generator: Adobe Illustrator 23.1.1, SVG Export Plug-In . SVG Version: 6.00 Build 0)  -->
<svg version="1.1" id="Layer_1" xmlns="http://www.w3.org/2000/svg" xmlns:xlink="http://www.w3.org/1999/xlink" x="0px" y="0px"
	 viewBox="0 0 230 96" style="enable-background:new 0 0 230 96;" xml:space="preserve">
<style type="text/css">
	.st0{fill:#FFFFFF;}
</style>
<g>
	<path class="st0" d="M56.8,39.5c-1.9,0-3.6,1.9-3.8,4.4c-1.8-3.3-4.7-4.9-7.6-4.9c-7.3,0-13.3,9-13.3,20.8
		c0,12.1,5.7,20.6,13.3,20.6c3.1,0,5.6-1.7,7.6-5c0.6,2.8,1.5,4.5,3.8,4.5c3.8,0,3.8-4.2,3.8-7V46.5C60.7,43.7,60.7,39.5,56.8,39.5z
		 M46.4,70.6c-4.3,0-6.3-5.6-6.3-10.8c0-5.1,1.9-11,6.3-11c4.2,0,6.2,5.8,6.2,11C52.6,64.9,50.6,70.6,46.4,70.6z"/>
	<path class="st0" d="M17.8,57.4c5.7-1.2,10.4-5.8,10.4-14.1c0-11.7-5.3-16.8-13.9-16.8H4.5c-2.8,0-4.3,2.2-4.3,5.8v41.8
		C0.2,77.9,2,80,4.4,80s4.2-2.1,4.2-5.8V58h0.1l12.4,20c0.9,1.4,2.2,1.9,3.2,1.9c2.4,0,4.2-2.8,4.2-5.7c0-1-0.3-2.1-1.1-3.3
		L17.8,57.4z M14.2,49.9H8.5V36.8h5.7c3.1,0,5.2,2.3,5.2,6.5S17.3,49.9,14.2,49.9z"/>
	<path class="st0" d="M64.3,29.8c-1.8-0.7-3.5-0.4-4.4,0.3c-1,0.8-0.3,2,0.3,2.4s1.3,0,2.1-0.1c1.2,0,2,0.5,2.7-0.1
		C65.8,31.7,65.3,30.2,64.3,29.8z"/>
	<path class="st0" d="M87.8,70.1H77.2l12.7-23.6c0.6-1.1,0.8-1.8,0.8-3.2c0-2.9-1.9-3.3-2.6-3.3H69.8c-2,0-3.6,1.7-3.6,4.7
		s1.6,4.7,3.6,4.7h9.3L66.5,73c-0.3,0.6-0.7,1.7-0.7,2.9c0,2.4,1.5,3.6,3.3,3.6h18.7c2,0,3.6-1.7,3.6-4.7S89.8,70.1,87.8,70.1z"/>
	<path class="st0" d="M52.1,13.9c0.4,0.5,0.3,1,0.8,1.5c1.1,0.9,3.9,0.4,3.9-1c0-0.7-0.8-1-1.2-1.7l-3.5-6.3c-0.3-0.6-0.4-1-1-1.4
		c-1.3-0.9-3.9,0.4-3.8,1.9L48.6,8L52.1,13.9z"/>
	<path class="st0" d="M69.1,9.1c0.1,1-0.5,2.3-0.3,2.6c1,1.1,2.8,0.7,3.7-0.4c0.8-0.9,0.1-1.7,0-2.7l-0.1-5.3c0-0.9,0.9-1.5,0.4-2.3
		c-0.6-0.9-2.8-1-3.7,0c-0.6,0.6-0.4,1.6-0.3,2.6L69.1,9.1z"/>
	<path class="st0" d="M36.1,26.5l2,0.9l3.2,1.4c1.1,0.5,1.7,1.3,2.9,1c1.5-0.3,2.6-2.7,1.8-3.9c-0.2-0.3-1.8-0.4-2.9-0.8l-5.4-2.4
		c-1-0.4-2-1-2.9-0.8c-1.3,0.4-2.1,3.2-1.4,4C34.1,26.7,35.1,26.2,36.1,26.5z"/>
	<path class="st0" d="M198,22.2c-2.3,0-4,2.4-4,5.9v14.6c-2.1-2.4-4.8-3.7-7.6-3.7c-8.6,0-13,10.8-13,21.2
		c0,10.2,5.1,20.2,13.3,20.2c2.7,0,5.8-1.6,7.3-4.9c0.5,2.8,1.8,4.4,4,4.4c2.3,0,4-2.4,4-5.9V28.1C202,24.6,200.3,22.2,198,22.2z
		 M187.6,70.6c-4.2,0-6.2-5.8-6.2-10.8s2.1-11,6.2-11c4.3,0,6.3,5.3,6.3,10.6S192.1,70.6,187.6,70.6z"/>
	<path class="st0" d="M162.8,39.5c-2.3,0-4,2.4-4,5.9V74c0,3.6,1.7,5.9,4,5.9s4-2.4,4-5.9V45.4C166.8,41.9,165.1,39.5,162.8,39.5z"
		/>
	<path class="st0" d="M162.8,23.4c-2.4,0-4.5,2.8-4.5,5.8c0,3.3,2.1,6.1,4.5,6.1c2.5,0,4.5-2.8,4.5-6.1
		C167.3,26.2,165.2,23.4,162.8,23.4z"/>
	<path class="st0" d="M215.8,51.4c0-2.1,1.3-3,2.7-3c2.6,0,5.7,3.1,7.2,3.1c1.9,0,3.3-2.3,3.3-4.7c0-5.3-6.1-7.7-10.1-7.7
		c-6.3,0-10.9,5-10.9,12.5c0,12.3,14,11.6,14,16.5c0,2-0.7,3-3.2,3c-3.8,0-5.2-3.6-8.3-3.6c-2.2,0-3.4,3.1-3.4,4.7
		c0,4.8,6.7,8.2,11.3,8.2c6.9,0,11.5-5.4,11.5-12.6C229.7,55.7,215.8,56.4,215.8,51.4z"/>
	<path class="st0" d="M77.6,32.4c1.2,0,2,0.5,2.7-0.1c0.7-0.6,0.3-2.1-0.7-2.5c-1.8-0.7-3.5-0.4-4.4,0.3c-1,0.8-0.3,2,0.3,2.4
		C76,32.8,76.8,32.4,77.6,32.4z"/>
	<path class="st0" d="M139,51.2l10.6-13.9c1.8-2.4,2.7-4,2.7-5.9c0-3.2-2-5.3-4.1-5.3c-1.6,0-2.6,1.2-3.2,2.1l-13.8,19.5V31.6
		c0-3.4-1.8-5.5-4.2-5.5c-2.5,0-4.2,2.4-4.2,5.5v43c0,3.3,1.8,5.3,4.2,5.3c2.5,0,4.2-2.4,4.2-5.3v-19l14.5,20.8
		c1.6,2.2,2.6,3.5,4.2,3.5c2.3,0,4.3-1.6,4.3-5.1c0-2.2-1-3.8-2.3-5.6L139,51.2z"/>
	<path class="st0" d="M112,53.3H96.2C94.1,53.5,93,55.4,93,58c0,2.5,1.1,4.4,3.2,4.6H112c2.1-0.2,3.2-2.1,3.2-4.6
		C115.3,55.4,114.1,53.5,112,53.3z"/>
	<path class="st0" d="M91.2,5.5c-0.6,0.3-0.6,0.8-1,1.3l-4.6,7.1c-0.4,0.7-1.2,0.9-1.2,1.7c0,1.4,2.8,1.9,3.9,1
		c0.5-0.4,0.4-0.9,0.8-1.4l4.5-6.6L95,7.5C95.2,6,92.6,4.7,91.2,5.5z"/>
	<path class="st0" d="M69.9,15.9c-11.9,0-21.5,7-21.5,15.7c0,1.4,1.3,2.5,2.9,2.5s2.8-1.1,2.8-2.5c0-5.8,7-10.7,15.8-10.7
		s15.9,4.7,15.9,10.6c0,1.4,1.3,2.5,2.9,2.5s2.8-1.1,2.8-2.5C91.4,22.8,81.8,15.8,69.9,15.9z"/>
	<path class="st0" d="M96.2,30.3c1.3,0.2,1.7-0.6,2.8-1.1l5.5-2.6l2-0.9c0.9-0.4,2,0.1,2.5-0.7c0.6-0.8-0.4-3.6-1.7-4
		c-0.9-0.2-1.8,0.4-2.8,0.9l-7.7,3.7c-1,0.5-2.6,0.6-2.8,0.9C93.3,27.7,94.6,30,96.2,30.3z"/>
</g>
</svg>
