<?xml version="1.0" encoding="utf-8"?>
<!-- Generator: Adobe Illustrator 21.0.2, SVG Export Plug-In . SVG Version: 6.00 Build 0)  -->
<svg version="1.1" id="Layer_1" xmlns="http://www.w3.org/2000/svg" xmlns:xlink="http://www.w3.org/1999/xlink" x="0px" y="0px"
	 width="24px" height="24px" viewBox="0 0 24 24" style="enable-background:new 0 0 24 24;" xml:space="preserve">
<style type="text/css">
	.st0{fill:#FCFCFC;}
</style>
<g>
	<path class="st0" d="M13.3,8.3c0.4-0.4,0.9-0.6,1.5-0.6c0.8,0,1.4,0.3,1.9,1c0.4-0.7,1.1-1,1.9-1c0.6,0,1.2,0.2,1.6,0.7
		c0.4,0.4,0.7,1,0.7,1.6v7.5c0,1.4-0.5,2.6-1.5,3.6c-1,1-2.2,1.5-3.6,1.5H8.2c-1.4,0-2.6-0.5-3.6-1.5c-1-1-1.5-2.2-1.5-3.6v-3.7
		c0-0.6,0.2-1,0.5-1.5C4,11.8,4.4,11.6,5,11.5V10c0-0.6,0.2-1.2,0.7-1.6c0.4-0.4,1-0.7,1.6-0.7c0.6,0,1,0.2,1.5,0.6V3.4
		c0-0.6,0.2-1.2,0.7-1.6c0.4-0.4,1-0.7,1.6-0.7c0.6,0,1.2,0.2,1.6,0.7c0.4,0.4,0.7,1,0.7,1.6V8.3z M13.3,10v3.7
		c0,0.3-0.1,0.4-0.4,0.4s-0.4-0.1-0.4-0.4V3.4c0-0.4-0.1-0.8-0.4-1.1c-0.3-0.3-0.6-0.4-1-0.4s-0.8,0.1-1.1,0.4
		C9.6,2.6,9.5,3,9.5,3.4v10.3c0,0.3-0.1,0.4-0.4,0.4c-0.3,0-0.4-0.1-0.4-0.4V10c0-0.4-0.1-0.8-0.4-1.1C8,8.6,7.7,8.5,7.2,8.5
		c-0.4,0-0.8,0.1-1.1,0.4C5.9,9.2,5.8,9.6,5.8,10v3.7c0,0.3-0.1,0.4-0.4,0.4C5.1,14.1,5,14,5,13.7v-1.4c-0.7,0.2-1.1,0.7-1.1,1.4
		v3.7c0,1.2,0.4,2.2,1.3,3c0.8,0.8,1.9,1.3,3,1.3h7.5c1.2,0,2.2-0.4,3.1-1.3c0.8-0.8,1.3-1.9,1.3-3V10c0-0.4-0.1-0.8-0.4-1.1
		c-0.3-0.3-0.6-0.4-1.1-0.4c-0.4,0-0.8,0.1-1,0.4C17.2,9.2,17,9.6,17,10v3.7c0,0.3-0.1,0.4-0.4,0.4c-0.3,0-0.4-0.1-0.4-0.4V10
		c0-0.4-0.1-0.8-0.4-1.1c-0.3-0.3-0.6-0.4-1.1-0.4c-0.4,0-0.8,0.1-1,0.4C13.4,9.2,13.3,9.6,13.3,10z"/>
</g>
</svg>
